{
    "asset" : {
        "generator" : "Khronos glTF Blender I/O v1.2.75",
        "version" : "2.0"
    },
    "scene" : 0,
    "scenes" : [
        {
            "name" : "Scene",
            "nodes" : [
                0
            ]
        }
    ],
    "nodes" : [
        {
            "mesh" : 0,
            "name" : "Bus_Stop"
        }
    ],
    "materials" : [
        {
            "doubleSided" : true,
            "emissiveFactor" : [
                0,
                0,
                0
            ],
            "name" : "steel",
            "pbrMetallicRoughness" : {
                "baseColorFactor" : [
                    0.14509804546833038,
                    0.14509804546833038,
                    0.14509804546833038,
                    1
                ],
                "metallicFactor" : 1,
                "roughnessFactor" : 0.49824094772338867
            }
        },
        {
            "doubleSided" : true,
            "emissiveFactor" : [
                0,
                0,
                0
            ],
            "name" : "steel_matte",
            "pbrMetallicRoughness" : {
                "baseColorFactor" : [
                    0.03921568766236305,
                    0.03921568766236305,
                    0.03921568766236305,
                    1
                ],
                "metallicFactor" : 1,
                "roughnessFactor" : 0.5527864098548889
            }
        },
        {
            "doubleSided" : true,
            "emissiveFactor" : [
                0,
                0,
                0
            ],
            "name" : "Sign_in",
            "pbrMetallicRoughness" : {
                "baseColorFactor" : [
                    0.6041666865348816,
                    0.6041666865348816,
                    0.6041666865348816,
                    1
                ],
                "metallicFactor" : 1,
                "roughnessFactor" : 0.5527864098548889
            }
        },
        {
            "alphaMode" : "BLEND",
            "doubleSided" : true,
            "emissiveFactor" : [
                0,
                0,
                0
            ],
            "name" : "glass",
            "pbrMetallicRoughness" : {
                "baseColorFactor" : [
                    0.5677080154418945,
                    0.5677080154418945,
                    0.5677080154418945,
                    1
                ],
                "metallicFactor" : 0,
                "roughnessFactor" : 0.03915005922317505
            }
        },
        {
            "doubleSided" : true,
            "emissiveFactor" : [
                0,
                0,
                0
            ],
            "name" : "seat",
            "pbrMetallicRoughness" : {
                "baseColorFactor" : [
                    0.31829893589019775,
                    0.1320810765028,
                    0,
                    1
                ],
                "metallicFactor" : 0,
                "roughnessFactor" : 0.8982409834861755
            }
        },
        {
            "doubleSided" : true,
            "emissiveFactor" : [
                0,
                0,
                0
            ],
            "name" : "steel_chain",
            "pbrMetallicRoughness" : {
                "baseColorFactor" : [
                    0.2158605009317398,
                    0.2158605009317398,
                    0.2158605009317398,
                    1
                ],
                "metallicFactor" : 1,
                "roughnessFactor" : 0.5527864098548889
            }
        }
    ],
    "meshes" : [
        {
            "name" : "Bus_Stop",
            "primitives" : [
                {
                    "attributes" : {
                        "POSITION" : 0,
                        "NORMAL" : 1,
                        "TEXCOORD_0" : 2
                    },
                    "indices" : 3,
                    "material" : 0
                },
                {
                    "attributes" : {
                        "POSITION" : 4,
                        "NORMAL" : 5,
                        "TEXCOORD_0" : 6
                    },
                    "indices" : 7,
                    "material" : 1
                },
                {
                    "attributes" : {
                        "POSITION" : 8,
                        "NORMAL" : 9,
                        "TEXCOORD_0" : 10
                    },
                    "indices" : 11,
                    "material" : 2
                },
                {
                    "attributes" : {
                        "POSITION" : 12,
                        "NORMAL" : 13,
                        "TEXCOORD_0" : 14
                    },
                    "indices" : 15,
                    "material" : 3
                },
                {
                    "attributes" : {
                        "POSITION" : 16,
                        "NORMAL" : 17,
                        "TEXCOORD_0" : 18
                    },
                    "indices" : 19,
                    "material" : 4
                },
                {
                    "attributes" : {
                        "POSITION" : 20,
                        "NORMAL" : 21,
                        "TEXCOORD_0" : 22
                    },
                    "indices" : 23,
                    "material" : 5
                }
            ]
        }
    ],
    "accessors" : [
        {
            "bufferView" : 0,
            "componentType" : 5126,
            "count" : 6019,
            "max" : [
                223.41934204101562,
                225.791015625,
                72.00940704345703
            ],
            "min" : [
                -223.41937255859375,
                -0.0026106834411621094,
                -72.00945281982422
            ],
            "type" : "VEC3"
        },
        {
            "bufferView" : 1,
            "componentType" : 5126,
            "count" : 6019,
            "type" : "VEC3"
        },
        {
            "bufferView" : 2,
            "componentType" : 5126,
            "count" : 6019,
            "type" : "VEC2"
        },
        {
            "bufferView" : 3,
            "componentType" : 5123,
            "count" : 20700,
            "type" : "SCALAR"
        },
        {
            "bufferView" : 4,
            "componentType" : 5126,
            "count" : 1540,
            "max" : [
                200.81179809570312,
                207.58331298828125,
                64.44031524658203
            ],
            "min" : [
                -214.2452392578125,
                27.900001525878906,
                -62.559688568115234
            ],
            "type" : "VEC3"
        },
        {
            "bufferView" : 5,
            "componentType" : 5126,
            "count" : 1540,
            "type" : "VEC3"
        },
        {
            "bufferView" : 6,
            "componentType" : 5126,
            "count" : 1540,
            "type" : "VEC2"
        },
        {
            "bufferView" : 7,
            "componentType" : 5123,
            "count" : 2490,
            "type" : "SCALAR"
        },
        {
            "bufferView" : 8,
            "componentType" : 5126,
            "count" : 24,
            "max" : [
                -194.95223999023438,
                200.0333251953125,
                57.44031524658203
            ],
            "min" : [
                -195.25222778320312,
                35.450008392333984,
                -55.55967712402344
            ],
            "type" : "VEC3"
        },
        {
            "bufferView" : 9,
            "componentType" : 5126,
            "count" : 24,
            "type" : "VEC3"
        },
        {
            "bufferView" : 10,
            "componentType" : 5126,
            "count" : 24,
            "type" : "VEC2"
        },
        {
            "bufferView" : 11,
            "componentType" : 5123,
            "count" : 36,
            "type" : "SCALAR"
        },
        {
            "bufferView" : 12,
            "componentType" : 5126,
            "count" : 98,
            "max" : [
                207.0618133544922,
                209.64907836914062,
                64.04033660888672
            ],
            "min" : [
                -214.85525512695312,
                15.799983978271484,
                -62.159664154052734
            ],
            "type" : "VEC3"
        },
        {
            "bufferView" : 13,
            "componentType" : 5126,
            "count" : 98,
            "type" : "VEC3"
        },
        {
            "bufferView" : 14,
            "componentType" : 5126,
            "count" : 98,
            "type" : "VEC2"
        },
        {
            "bufferView" : 15,
            "componentType" : 5123,
            "count" : 150,
            "type" : "SCALAR"
        },
        {
            "bufferView" : 16,
            "componentType" : 5126,
            "count" : 1753,
            "max" : [
                200.16177368164062,
                50.06196975708008,
                32.82644271850586
            ],
            "min" : [
                -124.59056854248047,
                40.199989318847656,
                -57.338172912597656
            ],
            "type" : "VEC3"
        },
        {
            "bufferView" : 17,
            "componentType" : 5126,
            "count" : 1753,
            "type" : "VEC3"
        },
        {
            "bufferView" : 18,
            "componentType" : 5126,
            "count" : 1753,
            "type" : "VEC2"
        },
        {
            "bufferView" : 19,
            "componentType" : 5123,
            "count" : 5520,
            "type" : "SCALAR"
        },
        {
            "bufferView" : 20,
            "componentType" : 5126,
            "count" : 16,
            "max" : [
                -77.42390441894531,
                210.07862854003906,
                9.089588165283203
            ],
            "min" : [
                -123.70443725585938,
                55.14659881591797,
                7.316824913024902
            ],
            "type" : "VEC3"
        },
        {
            "bufferView" : 21,
            "componentType" : 5126,
            "count" : 16,
            "type" : "VEC3"
        },
        {
            "bufferView" : 22,
            "componentType" : 5126,
            "count" : 16,
            "type" : "VEC2"
        },
        {
            "bufferView" : 23,
            "componentType" : 5123,
            "count" : 24,
            "type" : "SCALAR"
        }
    ],
    "bufferViews" : [
        {
            "buffer" : 0,
            "byteLength" : 72228,
            "byteOffset" : 0
        },
        {
            "buffer" : 0,
            "byteLength" : 72228,
            "byteOffset" : 72228
        },
        {
            "buffer" : 0,
            "byteLength" : 48152,
            "byteOffset" : 144456
        },
        {
            "buffer" : 0,
            "byteLength" : 41400,
            "byteOffset" : 192608
        },
        {
            "buffer" : 0,
            "byteLength" : 18480,
            "byteOffset" : 234008
        },
        {
            "buffer" : 0,
            "byteLength" : 18480,
            "byteOffset" : 252488
        },
        {
            "buffer" : 0,
            "byteLength" : 12320,
            "byteOffset" : 270968
        },
        {
            "buffer" : 0,
            "byteLength" : 4980,
            "byteOffset" : 283288
        },
        {
            "buffer" : 0,
            "byteLength" : 288,
            "byteOffset" : 288268
        },
        {
            "buffer" : 0,
            "byteLength" : 288,
            "byteOffset" : 288556
        },
        {
            "buffer" : 0,
            "byteLength" : 192,
            "byteOffset" : 288844
        },
        {
            "buffer" : 0,
            "byteLength" : 72,
            "byteOffset" : 289036
        },
        {
            "buffer" : 0,
            "byteLength" : 1176,
            "byteOffset" : 289108
        },
        {
            "buffer" : 0,
            "byteLength" : 1176,
            "byteOffset" : 290284
        },
        {
            "buffer" : 0,
            "byteLength" : 784,
            "byteOffset" : 291460
        },
        {
            "buffer" : 0,
            "byteLength" : 300,
            "byteOffset" : 292244
        },
        {
            "buffer" : 0,
            "byteLength" : 21036,
            "byteOffset" : 292544
        },
        {
            "buffer" : 0,
            "byteLength" : 21036,
            "byteOffset" : 313580
        },
        {
            "buffer" : 0,
            "byteLength" : 14024,
            "byteOffset" : 334616
        },
        {
            "buffer" : 0,
            "byteLength" : 11040,
            "byteOffset" : 348640
        },
        {
            "buffer" : 0,
            "byteLength" : 192,
            "byteOffset" : 359680
        },
        {
            "buffer" : 0,
            "byteLength" : 192,
            "byteOffset" : 359872
        },
        {
            "buffer" : 0,
            "byteLength" : 128,
            "byteOffset" : 360064
        },
        {
            "buffer" : 0,
            "byteLength" : 48,
            "byteOffset" : 360192
        }
    ],
    "buffers" : [
        {
            "byteLength" : 360240,
            "uri" : "data:application/octet-stream;base64,"
        }
    ]
}
